/* XPM */
static const char * anim_play_bwd_xpm[] = {
"20 20 256 2",
"  	c #000000",
". 	c #800000",
"+ 	c #008000",
"@ 	c #808000",
"# 	c #000080",
"$ 	c #800080",
"% 	c #008080",
"& 	c #C0C0C0",
"* 	c #808080",
"= 	c #FF0000",
"- 	c #00FF00",
"; 	c #FFFF00",
"> 	c #0000FF",
", 	c #FF00FF",
"' 	c #00FFFF",
") 	c #FFFFFF",
"! 	c #000000",
"~ 	c #00D98B",
"{ 	c #D17788",
"] 	c #00D777",
"^ 	c #400614",
"/ 	c #00C4F8",
"( 	c #120054",
"_ 	c #03D277",
": 	c #2E03D2",
"< 	c #77CCF8",
"[ 	c #120000",
"} 	c #001400",
"| 	c #320792",
"1 	c #7C2400",
"2 	c #000048",
"3 	c #0D1400",
"4 	c #000014",
"5 	c #00306F",
"6 	c #1400A4",
"7 	c #F81200",
"8 	c #400614",
"9 	c #00E8FA",
"0 	c #120018",
"a 	c #EE917C",
"b 	c #380792",
"c 	c #7CFFFF",
"d 	c #FFFF32",
"e 	c #07927C",
"f 	c #AB0692",
"g 	c #7CEB06",
"h 	c #927C00",
"i 	c #000000",
"j 	c #000040",
"k 	c #003886",
"l 	c #4800C8",
"m 	c #05927C",
"n 	c #C8E418",
"o 	c #00B8F9",
"p 	c #120051",
"q 	c #05927C",
"r 	c #780714",
"s 	c #006D05",
"t 	c #927CF0",
"u 	c #E41800",
"v 	c #D0E418",
"w 	c #00ACE4",
"x 	c #180020",
"y 	c #000000",
"z 	c #110000",
"A 	c #000600",
"B 	c #000020",
"C 	c #708F00",
"D 	c #780114",
"E 	c #000E00",
"F 	c #000098",
"G 	c #E41800",
"H 	c #F05E70",
"I 	c #00ECFF",
"J 	c #FFFF45",
"K 	c #09927C",
"L 	c #780114",
"M 	c #0030E4",
"N 	c #180024",
"O 	c #000200",
"P 	c #44FA12",
"Q 	c #007600",
"R 	c #000090",
"S 	c #41927C",
"T 	c #58F912",
"U 	c #000000",
"V 	c #0000C8",
"W 	c #05927C",
"X 	c #64F912",
"Y 	c #000000",
"Z 	c #0000C8",
"` 	c #05927C",
" .	c #90E418",
"..	c #0030FA",
"+.	c #120051",
"@.	c #05927C",
"#.	c #D80714",
"$.	c #006D05",
"%.	c #927CAC",
"&.	c #E41800",
"*.	c #98E418",
"=.	c #000000",
"-.	c #000000",
";.	c #001400",
">.	c #000000",
",.	c #003886",
"'.	c #480028",
").	c #E21800",
"!.	c #000000",
"~.	c #007901",
"{.	c #000048",
"].	c #000100",
"^.	c #050000",
"/.	c #00FCF8",
"(.	c #120040",
"_.	c #E41800",
":.	c #E4F912",
"<.	c #0018EE",
"[.	c #917C70",
"}.	c #05927C",
"|.	c #FFFFFF",
"1.	c #FF6D05",
"2.	c #927C62",
"3.	c #19927C",
"4.	c #931992",
"5.	c #7C80C0",
"6.	c #987C70",
"7.	c #19927C",
"8.	c #F0E418",
"9.	c #003800",
"0.	c #0000AC",
"a.	c #E41800",
"b.	c #00F0FD",
"c.	c #7FCCF9",
"d.	c #120018",
"e.	c #020000",
"f.	c #28FA12",
"g.	c #0018EE",
"h.	c #917C78",
"i.	c #19927C",
"j.	c #FFFFFF",
"k.	c #FF7019",
"l.	c #927C00",
"m.	c #001400",
"n.	c #021992",
"o.	c #7CACE4",
"p.	c #180098",
"q.	c #E41800",
"r.	c #000000",
"s.	c #00C8D9",
"t.	c #1800C8",
"u.	c #C00100",
"v.	c #070000",
"w.	c #0074F9",
"x.	c #120000",
"y.	c #000000",
"z.	c #74FA12",
"A.	c #0018EE",
"B.	c #917C70",
"C.	c #05927C",
"D.	c #FFFFFF",
"E.	c #FF6D05",
"F.	c #927C5B",
"G.	c #F0807C",
"H.	c #000014",
"I.	c #000000",
"J.	c #000067",
"K.	c #F0807C",
"L.	c #A4D8D1",
"M.	c #770000",
"N.	c #400001",
"O.	c #000000",
"P.	c #00F0FD",
"Q.	c #7F0100",
"R.	c #000000",
"S.	c #000000",
"T.	c #0C0100",
"U.	c #0098E4",
"V.	c #180028",
"W.	c #E21800",
"X.	c #000000",
"Y.	c #0044FA",
"Z.	c #12005F",
"`.	c #005000",
" +	c #B0FF12",
".+	c #00F399",
"++	c #837C70",
"@+	c #F0807C",
"#+	c #FFFFFF",
"$+	c #FF67F0",
"%+	c #807C5C",
"&+	c #574300",
"*+	c #98E418",
"=+	c #00A4D8",
"-+	c #D17724",
";+	c #000000",
">+	c #200000",
",+	c #00982C",
"'+	c #198865",
")+	c #90C501",
"!+	c #983EE6",
"~+	c #155605",
"{+	c #C601D8",
"]+	c #243241",
"^+	c #56FEC5",
"/+	c #010000",
"(+	c #000066",
"_+	c #010000",
":+	c #E8850F",
"<+	c #5BFC02",
"[+	c #0F0000",
"}+	c #000000",
"|+	c #306F14",
"1+	c #00792E",
"2+	c #626D70",
"3+	c #00D177",
"4+	c #200100",
"5+	c #00FC02",
"6+	c #000000",
"7+	c #001400",
"8+	c #D8F812",
"9+	c #000100",
"0+	c #000034",
"a+	c #FB1200",
"b+	c #18EE91",
"c+	c #7CF006",
"d+	c #927CFF",
"e+	c #FFFFFF",
"f+	c #EB0692",
"g+	c #7C0F9A",
"h+	c #807C00",
"i+	c #001400",
"j+	c #080014",
"k+	c #00209A",
"l+	c #807CA4",
"m+	c #D8D177",
"n+	c #2C0100",
"o+	c #000000",
"p+	c #00002C",
"q+	c #010000",
"r+	c #010000",
"s+	c #0044DA",
"t+	c #440075",
"u+	c #6F1400",
"v+	c #B04317",
"w+	c #00796F",
"x+	c #140081",
"y+	c #864800",
"z+	c #FFFFFF",
"A+	c #FF306F",
"B+	c #14009E",
"C+	c #DA4400",
"D+	c #756F14",
"E+	c #0073D0",
"F+	c #440030",
"G+	c #6F1400",
"> > > > > > > > > > > > > > > > > > > > ",
"> > > > > > > > > > > > > > > > > > > > ",
"> > > > > > > > > > > > > > > >     > > ",
"> > > > > > > > > > > > > >     )   > > ",
"> > > > > > > > > > > >     ) ) )   > > ",
"> > > > > > > > > >     ) ) ) ) )   > > ",
"> > > > > > > >     ) ) ) ) ) ) )   > > ",
"> > > > > >     ) ) ) ) ) ) ) ) )   > > ",
"> > > >     ) ) ) ) ) ) ) ) ) ) )   > > ",
"> >     ) ) ) ) ) ) ) ) ) ) ) ) )   > > ",
"> >     ) ) ) ) ) ) ) ) ) ) ) ) )   > > ",
"> > > >     ) ) ) ) ) ) ) ) ) ) )   > > ",
"> > > > > >     ) ) ) ) ) ) ) ) )   > > ",
"> > > > > > > >     ) ) ) ) ) ) )   > > ",
"> > > > > > > > > >     ) ) ) ) )   > > ",
"> > > > > > > > > > > >     ) ) )   > > ",
"> > > > > > > > > > > > > >     )   > > ",
"> > > > > > > > > > > > > > > >     > > ",
"> > > > > > > > > > > > > > > > > > > > ",
"> > > > > > > > > > > > > > > > > > > > "};
