/* XPM */
static char *result[] = {
/* columns rows colors chars-per-pixel */
"16 16 124 2 ",
"   c #0B5D9C",
".  c #0E5F9D",
"X  c #0C5F9E",
"o  c #0D609F",
"O  c #0E609F",
"+  c #0F609F",
"@  c #13619C",
"#  c #1C669F",
"$  c #246A9F",
"%  c #0D60A0",
"&  c #0E60A0",
"*  c #0E61A1",
"=  c #0E61A2",
"-  c #0E62A2",
";  c #0F62A3",
":  c #1063A4",
">  c #1164A4",
",  c #1064A5",
"<  c #1165A6",
"1  c #1165A7",
"2  c #1166A7",
"3  c #1366A7",
"4  c #1266A8",
"5  c #1367A8",
"6  c #1266A9",
"7  c #1267A9",
"8  c #1367AA",
"9  c #1368AA",
"0  c #1368AB",
"q  c #1668A8",
"w  c #1769A9",
"e  c #1469AC",
"r  c #1469AD",
"t  c #146AAD",
"y  c #156AAE",
"u  c #156BAF",
"i  c #166BAF",
"p  c #1869A8",
"a  c #1F6EAA",
"s  c #166BB0",
"d  c #166CB0",
"f  c #166CB1",
"g  c #176DB1",
"h  c #176DB2",
"j  c #176EB3",
"k  c #186EB4",
"l  c #186FB4",
"z  c #196FB5",
"x  c #1970B6",
"c  c #1A70B6",
"v  c #1A70B7",
"b  c #1A71B7",
"n  c #1B72B9",
"m  c #1C73BA",
"M  c #1D74BC",
"N  c #1D75BD",
"B  c #1E75BD",
"V  c #1F76BF",
"C  c #1F77BF",
"Z  c #206FAC",
"A  c #2673AD",
"S  c #2A76B0",
"D  c #2D7AB4",
"F  c #2978B8",
"G  c #2C7DBF",
"H  c #337EB8",
"J  c #327EB9",
"K  c #307EBC",
"L  c #42779F",
"P  c #507DA0",
"I  c #2078C0",
"U  c #2078C1",
"Y  c #2179C2",
"T  c #247CC8",
"R  c #247DC8",
"E  c #257ECA",
"W  c #257ECB",
"Q  c #3580B8",
"!  c #3681BF",
"~  c #3C84BB",
"^  c #3A84BD",
"/  c #3E87BE",
"(  c #3F87BE",
")  c #4088BE",
"_  c #4088BF",
"`  c #778FA1",
"'  c #3280C0",
"]  c #2A84D2",
"[  c #2A84D3",
"{  c #2B85D5",
"}  c #2B86D5",
"|  c #308BDC",
" . c #308CDD",
".. c #318CDE",
"X. c #318DDF",
"o. c #338FE3",
"O. c #3591E5",
"+. c #438AC0",
"@. c #4A8FC6",
"#. c #4D91C8",
"$. c #4F93CC",
"%. c #5094CD",
"&. c #5196CF",
"*. c #5196D0",
"=. c #5297D1",
"-. c #6BA4D3",
";. c #82B2D9",
":. c #86B3D8",
">. c #8CB7DA",
",. c #C6DDF0",
"<. c #C8DEF1",
"1. c #C9E0F3",
"2. c #C9E0F4",
"3. c #CAE1F5",
"4. c #CBE1F6",
"5. c #CBE2F7",
"6. c #F3F7FB",
"7. c #F4F8FC",
"8. c #F4F9FC",
"9. c #F5F9FC",
"0. c #F5F9FD",
"q. c #FDFEFE",
"w. c white",
"e. c None",
/* pixels */
"e.e.e.e.e.e.) +.+.~ e.e.e.e.e.e.",
"e.e.e.e._ J 3 2 1 w ^ ( e.e.e.e.",
"e.e.A H 2 r d h h s 0 5 / e.e.e.",
"e.e.D 6 g ! G B N ' K y 1 Q e.e.",
"e.S < s @.w.,.R T 6.q.x t q A e.",
"e.Z 0 z $.w.1.[ ] 8.w.M j 6 a e.",
"e.> y n &.w.3. .| 0.w.I c e p e.",
". , i m =.w.5.O.o.0.w.Y b r > e.",
"e.: u n *.w.4.X...0.w.U v e * e.",
"e.= e x %.w.2.} { 9.w.B k 7 o e.",
"e.X 4 f #.w.<.W E 7.w.b u ,   e.",
"e.e.- 9 F >.-.C V ;.:.d 4 % e.e.",
"e.e.  ; 7 u j z l h y 4 * e.e.e.",
"e.e.e.@ & , 4 8 8 4 : O e.e.e.e.",
"e.e.e.e.` L # o + $ P e.e.e.e.e.",
"e.e.e.e.e.e.e.e.e.e.e.e.e.e.e.e."
};
