/* XPM */
static char *pause_icon[] = {
/* columns rows colors chars-per-pixel */
"16 16 168 2 ",
"   c #0E619F",
".  c #10619F",
"X  c #0F61A0",
"o  c #0E61A1",
"O  c #0F62A1",
"+  c #0E61A2",
"@  c #0E62A2",
"#  c #0F62A3",
"$  c #1162A1",
"%  c #1263A1",
"&  c #1063A4",
"*  c #1164A4",
"=  c #1064A5",
"-  c #1165A6",
";  c #1165A7",
":  c #1166A7",
">  c #1366A7",
",  c #1867A3",
"<  c #1E67A0",
"1  c #1E6BA5",
"2  c #1266A8",
"3  c #1367A8",
"4  c #1266A9",
"5  c #1267A9",
"6  c #1367AA",
"7  c #1368AA",
"8  c #1368AB",
"9  c #1668A8",
"0  c #1769A9",
"q  c #1469AC",
"w  c #1469AD",
"e  c #146AAD",
"r  c #156AAE",
"t  c #156BAF",
"y  c #166BAF",
"u  c #1869A8",
"i  c #166BB0",
"p  c #166CB0",
"a  c #166CB1",
"s  c #176DB1",
"d  c #176DB2",
"f  c #176EB3",
"g  c #186EB4",
"h  c #186FB4",
"j  c #196FB5",
"k  c #1970B6",
"l  c #1A70B6",
"z  c #1A70B7",
"x  c #1A71B7",
"c  c #1B72B9",
"v  c #1C73BA",
"b  c #1D74BC",
"n  c #1D75BD",
"m  c #1E75BD",
"M  c #1F76BF",
"N  c #1F77BF",
"B  c #276CA0",
"V  c #206FAC",
"C  c #2A75AE",
"Z  c #2E7BB4",
"A  c #2978B8",
"S  c #2C7DBF",
"D  c #337EB8",
"F  c #327EB9",
"G  c #307EBC",
"H  c #2078C0",
"J  c #2078C1",
"K  c #2179C2",
"L  c #247CC8",
"P  c #247DC8",
"I  c #257ECA",
"U  c #257ECB",
"Y  c #3681BF",
"T  c #3A84BD",
"R  c #5182A7",
"E  c #4789BB",
"W  c #4288BC",
"Q  c #568FBA",
"!  c #688FAD",
"~  c #3280C0",
"^  c #2A84D2",
"/  c #2A84D3",
"(  c #2B85D5",
")  c #2B86D5",
"_  c #308BDC",
"`  c #308CDD",
"'  c #318CDE",
"]  c #318DDF",
"[  c #338FE3",
"{  c #3591E5",
"}  c #448BC0",
"|  c #4B8FC3",
" . c #4A8FC6",
".. c #4D91C8",
"X. c #4F93CC",
"o. c #5094CD",
"O. c #5196CF",
"+. c #5C99C8",
"@. c #5196D0",
"#. c #5297D1",
"$. c #69A1CD",
"%. c #6CA3CE",
"&. c #72A1C4",
"*. c #7BA7C9",
"=. c #7CAACD",
"-. c #6BA4D3",
";. c #7BADD2",
":. c #85AECD",
">. c #83B1D4",
",. c #82B2D9",
"<. c #86B3D8",
"1. c #8CB7DA",
"2. c #90B6D2",
"3. c #91B6D2",
"4. c #90B7D5",
"5. c #94B8D3",
"6. c #B0BEC8",
"7. c #9FC0D9",
"8. c #A4C1D8",
"9. c #A8C6DC",
"0. c #B4C9DA",
"q. c #B2CCDF",
"w. c #BBCDDB",
"e. c #B7CFE1",
"r. c #C4CCD3",
"t. c #D0D1D1",
"y. c gray82",
"u. c #D2D2D2",
"i. c gray84",
"p. c #D7D7D7",
"a. c #D8D8D8",
"s. c gainsboro",
"d. c #C3D4E1",
"f. c #C7D6E1",
"g. c #C0D6E5",
"h. c #CEDBE5",
"j. c #CDDDEA",
"k. c #D0DEE9",
"l. c #C6DDF0",
"z. c #C8DEF1",
"x. c #DFE1E2",
"c. c #C9E0F3",
"v. c #C9E0F4",
"b. c #CAE1F5",
"n. c #CBE1F6",
"m. c #CBE2F7",
"M. c #E1E2E2",
"N. c #E2E2E2",
"B. c gray91",
"V. c #EEEEEE",
"C. c #EFEFEF",
"Z. c #E6EDF3",
"A. c #EFF3F6",
"S. c #F3F3F3",
"D. c #F1F4F7",
"F. c #F3F7FB",
"G. c #F6F8F9",
"H. c #F4F8FC",
"J. c #F4F9FC",
"K. c #F5F9FC",
"L. c #F5F9FD",
"P. c #F8FAFB",
"I. c #FAFBFC",
"U. c #FBFCFD",
"Y. c #FDFDFE",
"T. c #FDFEFE",
"R. c #FEFEFE",
"E. c white",
/* pixels */
"E.E.E.E.A.7.;.$.%.>.q.U.E.E.E.E.",
"E.E.E.9.| D - 4 - 0 T +.j.E.E.E.",
"E.E.4.D - r f f f i 4 3 W g.E.E.",
"E.e.Z 4 y Y S m m Y S r 4 W Z.E.",
"E.E - i  .E.l.P L F.E.k r 0 =.E.",
"g.1 8 g X.E.z.( ^ J.E.v f 4 C K.",
"3.* r v O.E.b.' _ J.E.K k 0 u h.",
"*.- i v #.E.b.{ [ L.E.K k r * w.",
":.# r c O.E.b.[ ' L.E.M k r o f.",
"0.o q k X.E.b.( ( L.E.m g 4 % D.",
"K.1 4 f ..E.z.P P L.E.k f # Q E.",
"E.3.o 7 A 1.-.N M ,.<.f - % k.E.",
"E.E.Q o 4 y f g f f r 4 o 5.E.E.",
"E.E.I.&.o - 4 7 4 4 % , 8.E.E.E.",
"E.S.B.x.6.R <   % B ! r.M.B.S.E.",
"E.V.M.s.a.i.y.y.y.y.i.i.s.M.V.E."
};
