/* XPM */
static char *play_icon[] = {
/* columns rows colors chars-per-pixel */
"16 16 126 2 ",
"   c #2D7238",
".  c #2F713A",
"X  c #317539",
"o  c #32783A",
"O  c #347A3A",
"+  c #3C7747",
"@  c #797979",
"#  c #7B7B7B",
"$  c #39803C",
"%  c #3B833C",
"&  c #3D853D",
"*  c #418B3E",
"=  c #438E3F",
"-  c #3E8042",
";  c #4A9641",
":  c #529949",
">  c #52A144",
",  c #578761",
"<  c #65906E",
"1  c gray51",
"2  c #868686",
"3  c #888888",
"4  c #898989",
"5  c gray56",
"6  c gray57",
"7  c #949595",
"8  c #959595",
"9  c #9A9A9A",
"0  c #9D9D9D",
"q  c #9F9F9F",
"w  c #83A689",
"e  c #90B58E",
"r  c #92AE98",
"t  c #A7A7A8",
"y  c #ABACAC",
"u  c gray68",
"i  c #B0B0B1",
"p  c #B3B4B4",
"a  c #B8B9B9",
"s  c #BBBBBB",
"d  c gray",
"f  c #9AC091",
"g  c #BFBFC0",
"h  c #BCCBC0",
"j  c #C0C0C0",
"k  c #C1C2C2",
"l  c LightGray",
"z  c gray83",
"x  c #D4D4D5",
"c  c #D5D5D6",
"v  c #D5D6D7",
"b  c #D7D7D7",
"n  c #D7D7D8",
"m  c #D7D8D8",
"M  c #D8D9D9",
"N  c #D8D9DA",
"B  c #D9DADB",
"V  c #DADADB",
"C  c #DADBDB",
"Z  c #D8DED8",
"A  c #D8DCDA",
"S  c #D9DEDB",
"D  c #DBDCDC",
"F  c #DBDFDC",
"G  c #DCDCDD",
"H  c #DDDDDD",
"J  c #DCDDDE",
"K  c #DDDEDF",
"L  c #DFDFDF",
"P  c #DBE0DB",
"I  c #DDE0DE",
"U  c #DDE1DE",
"Y  c #DDE3DE",
"T  c #DEE3DF",
"R  c #DFE0E1",
"E  c #DFE4E0",
"W  c #E0E0E1",
"Q  c #E0E1E2",
"!  c #E1E1E2",
"~  c #E1E2E3",
"^  c #E2E2E3",
"/  c #E2E3E3",
"(  c #E2E3E4",
")  c #E3E4E5",
"_  c #E4E4E5",
"`  c #E4E5E5",
"'  c gray90",
"]  c #E4E5E6",
"[  c #E5E5E6",
"{  c #E5E6E6",
"}  c #E5E6E7",
"|  c #E6E6E7",
" . c #E6E7E8",
".. c #E7E7E8",
"X. c #E7E8E8",
"o. c #E7E8E9",
"O. c #E8E9EA",
"+. c #E9E9EA",
"@. c #E9EAEA",
"#. c #E9EAEB",
"$. c #EAEAEA",
"%. c #EAEAEB",
"&. c #EAEBEB",
"*. c gray92",
"=. c #EAEBEC",
"-. c #EBEBEC",
";. c #EBECEC",
":. c #ECECEC",
">. c #ECEDED",
",. c gray93",
"<. c #EDEEEE",
"1. c #EDEEEF",
"2. c #EEEEEF",
"3. c #EFEFF0",
"4. c gray94",
"5. c #F1F1F1",
"6. c gray95",
"7. c #F3F3F3",
"8. c #F4F4F4",
"9. c gray96",
"0. c gray97",
"q. c #F9F9F9",
"w. c #FBFBFB",
"e. c #FDFDFD",
"r. c #FEFEFE",
"t. c white",
/* pixels */
"t.t.t.t.t.t.t.7.0.t.t.t.t.t.t.t.",
"t.t.t.t.1.s q 9 y j B 9.t.t.t.t.",
"t.t.t.z 6 8 g K ~ ~ ~ B G t.t.t.",
"t.t.z 2 8 z ~ [ [ [ [ ) ~ B t.t.",
"t.7.4 4 z )  .+.;.;.+.X.~ K 1.t.",
"t.d @ a ~  .Z f T 1.1.&...~ B t.",
"t.6 1 K [ +.Z > : e / 1.+.[ B t.",
"t.@ q ~  .-.Z ; = & - w Z [ z t.",
"e.@ i ) X.;.P = % O . < U ) C t.",
"t.2 p ) X.;.R $ o . r ;.+.) K t.",
"t.y t ~ X.;.U X + h 7.;.[ R +.t.",
"t.+.5 R } #.P , Z 3.+.X.[ B t.t.",
"t.t.l k )  .) [ &.+.X.) m 9.t.t.",
"t.t.t.[ z ~ [ [ [ [ ~ b 7.t.t.t.",
"t.t.t.t.8.m m R K m K w.t.t.t.t.",
"t.t.t.t.t.t.t.7.9.t.t.t.t.t.t.t."
};
