/* XPM */
static char *result[] = {
/* columns rows colors chars-per-pixel */
"16 16 88 1 ",
"  c gray31",
". c gray32",
"X c #535353",
"o c gray33",
"O c #555555",
"+ c #585858",
"@ c #5A5A5A",
"# c #5D5D5D",
"$ c gray37",
"% c #646464",
"& c gray40",
"* c #676767",
"= c #686868",
"- c gray42",
"; c #6C6C6C",
": c gray43",
"> c #6F6F6F",
", c #717171",
"< c #727272",
"1 c #747474",
"2 c gray46",
"3 c gray48",
"4 c #7B7B7B",
"5 c gray49",
"6 c gray50",
"7 c #D70408",
"8 c #DF060A",
"9 c #D41317",
"0 c #EA0B0C",
"q c #D61B20",
"w c #DB1D21",
"e c #E11D20",
"r c #DB383C",
"t c #E42D30",
"y c #ED3031",
"u c #E53A3D",
"i c #EE3D3E",
"p c #DD4448",
"a c #DE464A",
"s c #E64143",
"d c #E24649",
"f c #E36F72",
"g c #E5787A",
"h c #E67E81",
"j c #808080",
"k c #818181",
"l c gray51",
"z c #838383",
"x c #848484",
"c c #888888",
"v c #898989",
"b c gray55",
"n c #8E8E8E",
"m c gray56",
"M c gray57",
"N c #9B9B9B",
"B c #A2A2A2",
"V c #A4A4A4",
"C c #EA9496",
"Z c #EC9B9D",
"A c gray79",
"S c #CACACA",
"D c gray80",
"F c gray81",
"G c gray82",
"H c #DFDFDF",
"J c #E1E1E1",
"K c #E4E4E4",
"L c gray90",
"P c #E7E7E7",
"I c gray91",
"U c #E9E9E9",
"Y c #EAEAEA",
"T c gray93",
"R c #EEEEEE",
"E c #F1F1F1",
"W c #F3F3F3",
"Q c gray96",
"! c #F6F6F6",
"~ c #FDF7F8",
"^ c #F8F8F8",
"/ c #F9F9F9",
"( c #FBFBFB",
") c #FDF8F8",
"_ c #FDFAFA",
"` c gray99",
"' c #FEFEFE",
"] c None",
/* pixels */
"]]]]]xlkklx]]]]]",
"]]]j4,zMMz,4j]]]",
"]]5,mFLYIJDn,5]]",
"]3:VPW^//!RHB:3]",
"]<bU!`''''(EHb<]",
"1*GQ`_Cprh)(TS*1",
">3K/'Zdutwg'QH3>",
"-vK^'asiyeq'^Kv-",
"=cK^'980089'^Kc=",
"&2HQ'f7887f'QH2&",
"%@ST(~f99f~(TS@%",
"]#lHE(''''(EHl#]",
"]$oNHTQ^^QTHNo$]",
"]]@.6AHKKHA6.@]]",
"]]]+X ;jj; X+]]]",
"]]]]]OX..XO]]]]]"
};
