/* XPM */
static char *recording_icon[] = {
/* columns rows colors chars-per-pixel */
"16 16 93 2 ",
"   c gray31",
".  c gray32",
"X  c gray33",
"o  c gray34",
"O  c #5A5A5A",
"+  c gray37",
"@  c #676767",
"#  c #6C6C6C",
"$  c gray43",
"%  c #6F6F6F",
"&  c #717171",
"*  c gray45",
"=  c gray46",
"-  c gray48",
";  c #7C7C7C",
":  c #7E7E7E",
">  c gray50",
",  c #D70408",
"<  c #DF060A",
"1  c #D41317",
"2  c #EA0B0C",
"3  c #D61B20",
"4  c #DB1D21",
"5  c #E11D20",
"6  c #DB383C",
"7  c #E42D30",
"8  c #ED3031",
"9  c #E53A3D",
"0  c #EE3D3E",
"q  c #DD4448",
"w  c #DE464A",
"e  c #E64143",
"r  c #E24649",
"t  c #E36F72",
"y  c #E5787A",
"u  c #E67E81",
"i  c #808080",
"p  c gray51",
"a  c #838383",
"s  c #848484",
"d  c #868686",
"f  c #888888",
"g  c #898989",
"h  c gray55",
"j  c #8E8E8E",
"k  c gray56",
"l  c gray57",
"z  c gray59",
"x  c #9B9B9B",
"c  c gray62",
"v  c #9F9F9F",
"b  c #A2A2A2",
"n  c #A4A4A4",
"m  c gray68",
"M  c gray69",
"N  c gray70",
"B  c #B7B7B7",
"V  c #EA9496",
"C  c #EC9B9D",
"Z  c gray79",
"A  c #CACACA",
"S  c gray80",
"D  c gray81",
"F  c gray82",
"G  c #DDDDDD",
"H  c gray87",
"J  c #DFDFDF",
"K  c gray88",
"L  c #E1E1E1",
"P  c gray89",
"I  c #E4E4E4",
"U  c gray90",
"Y  c #E6E6E6",
"T  c #E7E7E7",
"R  c gray91",
"E  c #E9E9E9",
"W  c #EAEAEA",
"Q  c gray93",
"!  c #EEEEEE",
"~  c #F1F1F1",
"^  c #F3F3F3",
"/  c gray96",
"(  c #F6F6F6",
")  c #FDF7F8",
"_  c #F8F8F8",
"`  c #F9F9F9",
"'  c gray98",
"]  c #FBFBFB",
"[  c #FDF8F8",
"{  c #FDFAFA",
"}  c gray99",
"|  c #FEFEFE",
" . c white",
/* pixels */
" . . . .I B z a d z B I  . . . .",
" . .' N ; & d l l a & ; N '  . .",
" .' c & l D I W I L D j $ c '  .",
" .N $ n I ^ ' ( ' ( Q H b $ N  .",
"L & f W (  . . . . .} ~ H j & I ",
"m @ F ^ ' { V q 6 u ' } Q A @ m ",
"d - I '  .C r 9 7 1 y  .( H - d ",
"& f I '  .w e 0 8 5 1  .' I f & ",
"# f I (  .1 < 2 2 2 1  .( I f # ",
"; = J /  .t , < < , t  .( H = ; ",
"n O A Q ' ) t 1 1 t ' ' Q A O n ",
"L + a H ~ '  . .} } } ^ J a + L ",
" .c X x K Q ( _ _ ( Q L x X v  .",
" .' a . ; Z H I I H A ; . a '  .",
" . .' x X   # i i #   X x _  . .",
" . . . .H x $ o o $ x H  . . . ."
};
